<?xml version="1.0" encoding="UTF-8" standalone="no"?>
<!-- Created with Inkscape (http://www.inkscape.org/) -->

<svg
   width="73.023018mm"
   height="72.960327mm"
   viewBox="0 0 73.023018 72.960327"
   version="1.1"
   id="svg5"
   xml:space="preserve"
   xmlns:inkscape="http://www.inkscape.org/namespaces/inkscape"
   xmlns:sodipodi="http://sodipodi.sourceforge.net/DTD/sodipodi-0.dtd"
   xmlns="http://www.w3.org/2000/svg"
   xmlns:svg="http://www.w3.org/2000/svg"><sodipodi:namedview
     id="namedview7"
     pagecolor="#ffffff"
     bordercolor="#000000"
     borderopacity="0.25"
     inkscape:showpageshadow="2"
     inkscape:pageopacity="0.0"
     inkscape:pagecheckerboard="0"
     inkscape:deskcolor="#d1d1d1"
     inkscape:document-units="mm"
     showgrid="false" /><defs
     id="defs2" /><g
     inkscape:label="Layer 1"
     inkscape:groupmode="layer"
     id="layer1"
     transform="translate(-62.061185,-66.525908)"><path
       style="fill:#ff6600;stroke-width:0.264583"
       d="m 83.492161,138.92116 c -0.508929,-0.31024 -1.415873,-0.96604 -2.015432,-1.45734 -1.156209,-0.94742 -5.261324,-5.53978 -5.261324,-5.88579 0,-0.11256 0.392363,-0.65153 0.871919,-1.19771 l 0.871919,-0.99306 1.497531,1.14738 c 3.49026,2.67416 6.680506,6.3668 6.680506,7.73252 0,0.52425 -0.728351,1.22029 -1.27567,1.21907 -0.244266,-5.3e-4 -0.860518,-0.25482 -1.369449,-0.56507 z m 27.931719,0.15029 c -0.55192,-0.55192 -0.52481,-0.97907 0.14552,-2.29304 0.62142,-1.21807 3.811,-4.47533 6.09814,-6.22752 l 1.47645,-1.13112 0.96906,0.96907 c 0.53299,0.53298 0.93484,1.06597 0.893,1.18442 -0.16775,0.47493 -4.31776,5.05505 -5.33739,5.89056 -1.45705,1.19394 -2.84162,2.0212 -3.38488,2.02241 -0.24427,5.3e-4 -0.63122,-0.18611 -0.8599,-0.41478 z m -40.340167,-0.26752 c -6.210582,-1.67012 -9.967272,-8.06016 -8.361937,-14.22345 0.218348,-0.83829 0.586569,-1.89076 0.818269,-2.33882 0.419228,-0.8107 0.423808,-0.81212 0.94284,-0.29309 0.519033,0.51903 0.51878,0.5298 -0.05204,2.21709 -0.783985,2.31738 -0.648863,5.28688 0.338624,7.44176 2.187882,4.77435 7.685716,7.17585 12.612293,5.50915 1.687287,-0.57082 1.698057,-0.57107 2.217089,-0.052 0.519033,0.51904 0.517609,0.52362 -0.293088,0.94284 -2.263411,1.17046 -5.621759,1.49582 -8.222049,0.79656 z m 48.981117,0.0255 c -0.76687,-0.21583 -1.76456,-0.58389 -2.21709,-0.8179 -0.81877,-0.4234 -0.82024,-0.428 -0.3012,-0.94704 0.51903,-0.51903 0.5298,-0.51878 2.21708,0.052 2.31738,0.78399 5.28689,0.64887 7.44177,-0.33862 4.77435,-2.18788 7.17585,-7.68572 5.50915,-12.61229 l -0.5736,-1.69553 0.53836,-0.53836 0.53837,-0.53837 0.53066,1.19963 c 2.74378,6.20277 -0.25311,13.46708 -6.53702,15.8454 -1.9688,0.74516 -5.25032,0.92471 -7.14648,0.39104 z m -36.418904,-5.9323 c -0.418301,-0.46222 -0.412403,-0.59015 0.09693,-2.10208 0.642194,-1.90633 0.705924,-4.43854 0.157567,-6.26059 -0.351361,-1.16749 -0.345619,-1.30826 0.06615,-1.62114 0.621075,-0.47193 0.722707,-0.44758 1.040196,0.24924 1.017265,2.23265 1.037069,5.8798 0.0463,8.52785 -0.637246,1.70319 -0.817753,1.85799 -1.407144,1.20672 z m 28.670304,-0.6578 c -1.18517,-2.67926 -1.27895,-6.65958 -0.21209,-9.00109 0.35319,-0.77518 0.44542,-0.80306 1.07468,-0.32492 0.41176,0.31288 0.4175,0.45365 0.0661,1.62114 -0.54971,1.82654 -0.4847,4.35405 0.16132,6.27171 l 0.54608,1.62103 -0.53837,0.53837 -0.53837,0.53836 z m -39.6727,-1.93375 c -2.423404,-1.24483 -2.304849,-4.76609 0.195643,-5.81087 2.67902,-1.11936 5.332869,1.53449 4.213503,4.21351 -0.72377,1.73222 -2.730963,2.4594 -4.409146,1.59736 z m 48.94791,0 c -2.4234,-1.24483 -2.30485,-4.76609 0.19564,-5.81087 2.67902,-1.11936 5.33287,1.53449 4.21351,4.21351 -0.72377,1.73222 -2.73097,2.4594 -4.40915,1.59736 z m -44.586304,-5.76004 -1.062353,-1.06564 3.026872,-4.63021 c 4.855108,-7.42686 5.963752,-10.37798 5.963752,-15.875 0,-5.495285 -1.10359,-8.431125 -5.967459,-15.875005 l -3.025403,-4.63021 1.063472,-1.06048 1.063471,-1.06048 5.159375,3.33291 c 7.272536,4.698 9.737122,5.61191 15.213539,5.64145 5.608488,0.0302 8.484158,-1.03949 16.007288,-5.95462 l 4.63021,-3.02508 1.06541,1.07651 1.06542,1.07652 -2.87608,4.35226 c -4.93668,7.47049 -6.13667,10.66346 -6.11031,16.258515 0.0259,5.5057 1.06819,8.26021 5.95678,15.74271 l 3.02508,4.63021 -1.07651,1.06541 -1.07652,1.06542 -4.35226,-2.87608 c -7.39295,-4.88543 -10.64744,-6.12067 -16.126222,-6.12067 -5.495242,0 -8.422415,1.10105 -15.874992,5.97133 l -4.630208,3.02586 z m -9.256398,-0.93758 c -5.041912,-4.40428 -6.896206,-7.55368 -4.762702,-8.08915 1.358644,-0.341 4.992704,2.63354 8.010489,6.55671 l 1.131119,1.47047 -0.95914,0.95914 c -0.527528,0.52753 -1.036531,0.95749 -1.13112,0.95547 -0.09459,-0.002 -1.124479,-0.83571 -2.288646,-1.85264 z m 58.133712,0.86588 -0.86837,-0.92309 1.13295,-1.47883 c 1.77601,-2.31821 5.01664,-5.48184 6.27051,-6.12151 2.26075,-1.15335 3.30619,0.0434 1.99395,2.28258 -1.04096,1.77626 -6.73478,7.296 -7.42462,7.19762 -0.12983,-0.0185 -0.62682,-0.44906 -1.10442,-0.95677 z m -57.337854,-6.68015 c -0.466731,-0.51573 -0.450382,-0.53852 0.775647,-1.08085 2.667272,-1.17986 6.65195,-1.27149 8.988903,-0.2067 0.775178,0.35319 0.803064,0.44543 0.324921,1.07468 -0.312882,0.41177 -0.453647,0.41751 -1.621136,0.0661 -1.779237,-0.53548 -4.466029,-0.47312 -6.221484,0.14439 -1.802084,0.63391 -1.675397,0.63378 -2.246851,0.002 z m 57.677054,-0.0261 c -1.61786,-0.58973 -4.35058,-0.64385 -6.08919,-0.1206 -1.16749,0.35136 -1.30826,0.34562 -1.62114,-0.0661 -0.47814,-0.62925 -0.45026,-0.72149 0.32492,-1.07468 2.33695,-1.06479 6.32163,-0.97316 8.9889,0.2067 1.22603,0.54233 1.24238,0.56512 0.77565,1.08085 -0.55443,0.61263 -0.62903,0.61182 -2.37914,-0.0261 z M 62.475971,90.123525 c -0.228676,-0.22868 -0.415329,-0.61563 -0.414785,-0.8599 0.0012,-0.54326 0.82847,-1.92783 2.022408,-3.38488 0.835513,-1.01963 5.415633,-5.16964 5.890562,-5.33739 0.11845,-0.0418 0.651442,0.36001 1.184426,0.89299 l 0.969062,0.96907 -1.131119,1.47645 c -1.752183,2.28713 -5.009443,5.47672 -6.227519,6.09814 -1.313964,0.67033 -1.741114,0.69744 -2.293035,0.14552 z m 69.842609,-0.15943 c -1.18254,-0.62337 -4.46906,-3.86435 -6.16972,-6.08423 l -1.13112,-1.47645 0.96906,-0.96907 c 0.53299,-0.53298 1.06598,-0.93483 1.18443,-0.89299 0.47493,0.16775 5.05505,4.31776 5.89056,5.33739 1.19394,1.45705 2.0212,2.84162 2.02241,3.38488 10e-4,0.57603 -0.70755,1.27891 -1.27468,1.26398 -0.24427,-0.006 -0.91519,-0.26001 -1.49094,-0.56351 z m -61.201656,-0.0825 c -0.766873,-0.21584 -1.764563,-0.5839 -2.21709,-0.81791 -0.818777,-0.4234 -0.82024,-0.428 -0.301208,-0.94704 0.519033,-0.51903 0.52944,-0.51891 2.142597,0.0245 1.917658,0.64602 4.445165,0.71103 6.271708,0.16132 1.167503,-0.35137 1.308203,-0.34562 1.620594,0.0662 0.490016,0.6459 0.333574,0.88851 -0.845512,1.31124 -1.56778,0.56207 -5.019851,0.66646 -6.671089,0.20172 z m 49.548476,0.0991 c -1.31996,-0.30042 -2.51623,-0.77549 -2.50513,-0.99485 0.005,-0.0915 0.1626,-0.36925 0.35105,-0.61725 0.31288,-0.41177 0.45365,-0.41751 1.62114,-0.0662 1.82654,0.54971 4.35405,0.4847 6.2717,-0.16132 l 1.62103,-0.54608 0.53837,0.53837 0.53837,0.53837 -1.21981,0.53958 c -2.24377,0.99252 -4.96259,1.28236 -7.21672,0.76932 z m -57.125355,-6.27292 c -1.651539,-3.19372 -1.534873,-7.58772 0.290512,-10.94155 0.834771,-1.53375 3.256991,-3.90677 4.781806,-4.68467 1.513507,-0.77213 3.872969,-1.35476 5.486375,-1.35476 1.503024,0 3.970674,0.57593 5.207024,1.21527 0.810697,0.41922 0.812121,0.4238 0.293088,0.94284 -0.519032,0.51903 -0.529802,0.51878 -2.217089,-0.052 -2.486346,-0.84115 -5.389431,-0.65731 -7.717316,0.4887 -4.616599,2.27275 -6.867501,7.63258 -5.233601,12.46222 0.570821,1.68728 0.571074,1.69805 0.05204,2.21708 -0.519032,0.51904 -0.523612,0.51761 -0.94284,-0.29308 z m 69.053795,0.24146 c -0.41849,-0.46242 -0.41097,-0.59399 0.12445,-2.17658 0.78007,-2.30576 0.64302,-5.28034 -0.34237,-7.43064 -2.18788,-4.77435 -7.68572,-7.17585 -12.6123,-5.50915 l -1.69552,0.5736 -0.53837,-0.53837 -0.53836,-0.53836 1.19963,-0.53066 c 6.20186,-2.74338 13.37802,0.21279 15.86873,6.53702 0.85275,2.16523 0.8532,6.163 0.001,8.32682 -0.70487,1.78961 -0.87575,1.93945 -1.46683,1.28632 z m -48.627271,-0.91369 c -0.411768,-0.31239 -0.417512,-0.45309 -0.06615,-1.6206 0.549709,-1.82654 0.484701,-4.35405 -0.161313,-6.2717 l -0.546084,-1.62104 0.538368,-0.53836 0.538369,-0.53837 0.530654,1.19963 c 1.163846,2.63107 1.351859,6.04342 0.470807,8.54492 -0.415083,1.17852 -0.658108,1.33602 -1.304655,0.84552 z m 28.137571,-0.32438 c -1.06686,-2.3415 -0.97308,-6.32183 0.21209,-9.00108 l 0.55939,-1.26461 0.53837,0.53837 0.53837,0.53836 -0.54608,1.62104 c -0.63709,1.89115 -0.6998,4.10485 -0.17373,6.13288 0.33655,1.29742 0.33019,1.46756 -0.0662,1.76904 -0.61567,0.46832 -0.71025,0.43858 -1.06226,-0.334 z m -39.46061,-1.35348 c -2.423404,-1.24483 -2.304849,-4.7661 0.195643,-5.81087 2.67902,-1.11936 5.332869,1.53449 4.213503,4.21351 -0.72377,1.73222 -2.730963,2.4594 -4.409146,1.59736 z m 48.94791,0 c -2.4234,-1.24483 -2.30485,-4.7661 0.19564,-5.81087 2.67902,-1.11936 5.33287,1.53449 4.21351,4.21351 -0.72377,1.73222 -2.73097,2.4594 -4.40915,1.59736 z m -44.659413,-5.83421 c -0.478983,-0.50907 -0.836171,-1.02539 -0.79375,-1.14738 0.210461,-0.60526 4.617908,-5.33703 5.832088,-6.26125 1.869649,-1.42315 2.512959,-1.72668 3.261487,-1.53881 1.395399,0.35022 1.014822,2.02078 -1.01604,4.45995 -1.024244,1.23016 -5.946547,5.51439 -6.257953,5.44673 -0.08523,-0.0185 -0.546849,-0.45017 -1.025832,-0.95924 z m 39.576283,-1.11406 c -3.77593,-3.15171 -5.72329,-5.6994 -5.38541,-7.04563 0.50943,-2.02975 3.60969,-0.28144 7.624,4.29935 1.20069,1.37013 2.21731,2.58953 2.25915,2.70977 0.0616,0.17707 -1.69165,2.14348 -1.91113,2.14348 -0.0343,0 -1.19826,-0.94814 -2.58661,-2.10697 z"
       id="path179"
       inkscape:export-filename="path179.svg"
       inkscape:export-xdpi="17.391777"
       inkscape:export-ydpi="17.391777" /></g></svg>
